<?xml version="1.0" standalone="no"?>
<!DOCTYPE svg PUBLIC "-//W3C//DTD SVG 20010904//EN"
 "http://www.w3.org/TR/2001/REC-SVG-20010904/DTD/svg10.dtd">
<svg version="1.0" xmlns="http://www.w3.org/2000/svg"
 width="1200.000000pt" height="1200.000000pt" viewBox="0 0 1200.000000 1200.000000"
 preserveAspectRatio="xMidYMid meet">

<g transform="translate(0.000000,1200.000000) scale(0.100000,-0.100000)"
fill="#000000" stroke="none">
<path d="M611 8354 c28 -136 95 -544 128 -784 113 -804 176 -1577 165 -2020
l-4 -180 67 -1 c96 0 164 -7 363 -35 749 -105 1784 -420 2793 -850 l128 -55
107 79 c110 82 304 216 450 311 67 44 80 56 67 64 -9 5 -98 40 -198 79 -585
225 -1193 385 -1752 462 -216 29 -249 32 -480 47 -99 6 -180 11 -181 12 -1 1
2 47 7 102 18 226 -32 787 -111 1235 l-11 65 -107 75 c-499 353 -1008 857
-1340 1328 -48 68 -92 131 -98 139 -6 9 -3 -24 7 -73z"/>
<path d="M11406 8357 c-344 -512 -907 -1067 -1493 -1471 -10 -7 -82 -509 -103
-706 -19 -192 -30 -494 -21 -595 5 -55 8 -101 7 -102 -1 -1 -82 -6 -181 -12
-231 -15 -264 -18 -480 -47 -464 -63 -1015 -199 -1495 -367 -239 -84 -473
-178 -463 -187 4 -4 85 -58 178 -120 94 -62 234 -160 312 -217 l142 -103 192
81 c977 413 1995 720 2729 823 198 28 267 35 360 35 l65 1 1 308 c3 661 119
1742 284 2636 11 60 19 111 17 112 -2 2 -25 -29 -51 -69z"/>
<path d="M2004 8035 c4 -10 58 -224 121 -475 158 -636 220 -941 264 -1315 18
-150 41 -433 41 -501 0 -23 3 -24 68 -24 37 0 128 -7 202 -15 593 -67 1398
-305 2189 -647 91 -39 170 -71 175 -71 6 0 49 23 96 50 144 85 327 186 502
277 l167 86 -37 16 c-97 41 -403 147 -541 188 -447 134 -902 214 -1320 234
l-144 7 2 145 c1 87 -4 193 -14 265 -16 122 -71 387 -104 505 l-18 64 -249
126 c-407 205 -669 380 -984 658 -135 118 -229 215 -349 357 -41 50 -72 81
-67 70z"/>
<path d="M9995 7973 c-121 -156 -395 -414 -620 -583 -238 -178 -421 -290 -729
-445 l-240 -121 -23 -84 c-73 -267 -114 -540 -112 -745 l1 -150 -147 -7 c-535
-26 -1106 -146 -1660 -348 -88 -33 -177 -66 -197 -75 l-38 -15 158 -82 c176
-91 371 -198 511 -281 l94 -55 81 35 c593 259 1233 478 1731 591 271 62 609
112 758 112 37 0 67 3 67 8 0 38 66 682 85 837 67 521 160 957 284 1325 27 80
49 145 48 146 -1 1 -24 -28 -52 -63z"/>
<path d="M6050 7919 c0 -27 -29 -168 -61 -293 -11 -43 -18 -80 -16 -83 5 -4
59 215 73 290 3 20 9 39 13 41 4 3 15 -32 25 -76 9 -44 20 -78 22 -75 5 5 -41
206 -50 214 -3 4 -6 -5 -6 -18z"/>
<path d="M6110 7704 c0 -18 63 -235 67 -231 2 2 -11 55 -28 118 -30 108 -39
134 -39 113z"/>
<path d="M3483 7560 c103 -150 196 -338 273 -555 24 -66 43 -115 43 -109 1 16
-52 169 -93 267 -45 109 -96 211 -148 296 -21 35 -37 65 -36 67 2 1 33 -21 68
-50 36 -29 99 -75 140 -103 83 -55 280 -166 286 -161 2 2 -29 22 -69 43 -174
93 -342 211 -455 319 l-54 51 45 -65z"/>
<path d="M8525 7534 c-147 -124 -283 -213 -473 -309 -135 -68 -161 -87 -46
-33 146 68 330 179 447 268 15 12 27 19 27 17 0 -3 -19 -38 -43 -79 -72 -123
-164 -337 -182 -423 -3 -16 12 20 34 80 67 184 185 408 254 483 27 29 19 28
-18 -4z"/>
<path d="M5941 7453 c-36 -125 -119 -328 -191 -469 -140 -274 -312 -505 -584
-784 -117 -119 -145 -150 -87 -100 247 221 515 563 666 852 95 183 240 556
222 574 -2 2 -14 -31 -26 -73z"/>
<path d="M6180 7453 c0 -21 99 -290 147 -398 81 -184 207 -393 326 -543 92
-116 108 -134 286 -312 l164 -165 -161 168 c-373 388 -537 645 -703 1102 -32
88 -58 154 -59 148z"/>
<path d="M4070 7185 c25 -13 50 -24 55 -24 6 0 -10 11 -35 24 -25 13 -49 24
-55 24 -5 0 10 -11 35 -24z"/>
<path d="M4140 7157 c0 -8 211 -88 222 -85 5 2 -39 21 -99 43 -59 22 -111 42
-115 43 -5 2 -8 1 -8 -1z"/>
<path d="M7865 7141 c-22 -11 -35 -19 -30 -19 14 -1 93 36 80 37 -5 0 -28 -8
-50 -18z"/>
<path d="M7665 7068 c-77 -26 -124 -45 -105 -42 60 11 297 97 255 92 -5 0 -73
-23 -150 -50z"/>
<path d="M4380 7066 c0 -7 141 -49 146 -43 3 2 -23 12 -58 22 -34 9 -68 19
-75 22 -7 3 -13 3 -13 -1z"/>
<path d="M4595 6999 c33 -10 76 -21 95 -24 19 -3 -3 6 -50 20 -99 29 -133 32
-45 4z"/>
<path d="M7455 7005 c-39 -14 -40 -14 -5 -8 41 7 82 22 60 22 -8 0 -33 -7 -55
-14z"/>
<path d="M7360 6980 c-20 -6 -21 -8 -5 -8 11 0 29 3 40 8 25 11 -1 11 -35 0z"/>
<path d="M4800 6950 c14 -4 34 -8 45 -8 16 0 15 2 -5 8 -14 4 -34 8 -45 8 -16
0 -15 -2 5 -8z"/>
<path d="M7220 6950 c-20 -6 -21 -8 -5 -8 11 0 31 4 45 8 20 6 21 8 5 8 -11 0
-31 -4 -45 -8z"/>
<path d="M4878 6933 c6 -2 18 -2 25 0 6 3 1 5 -13 5 -14 0 -19 -2 -12 -5z"/>
<path d="M7158 6933 c6 -2 18 -2 25 0 6 3 1 5 -13 5 -14 0 -19 -2 -12 -5z"/>
<path d="M8227 6883 c-25 -92 -69 -312 -65 -325 2 -6 10 22 17 63 8 41 27 128
42 193 30 123 34 170 6 69z"/>
<path d="M4928 6923 c6 -2 18 -2 25 0 6 3 1 5 -13 5 -14 0 -19 -2 -12 -5z"/>
<path d="M7108 6923 c6 -2 18 -2 25 0 6 3 1 5 -13 5 -14 0 -19 -2 -12 -5z"/>
<path d="M4983 6913 c9 -2 23 -2 30 0 6 3 -1 5 -18 5 -16 0 -22 -2 -12 -5z"/>
<path d="M7005 6910 c-16 -7 -17 -9 -3 -9 9 -1 20 4 23 9 7 11 7 11 -20 0z"/>
<path d="M7053 6913 c9 -2 23 -2 30 0 6 3 -1 5 -18 5 -16 0 -22 -2 -12 -5z"/>
<path d="M5048 6903 c7 -3 16 -2 19 1 4 3 -2 6 -13 5 -11 0 -14 -3 -6 -6z"/>
<path d="M5108 6893 c7 -3 16 -2 19 1 4 3 -2 6 -13 5 -11 0 -14 -3 -6 -6z"/>
<path d="M6865 6890 l-40 -7 35 -1 c19 -1 42 3 50 8 16 11 14 11 -45 0z"/>
<path d="M6938 6893 c7 -3 16 -2 19 1 4 3 -2 6 -13 5 -11 0 -14 -3 -6 -6z"/>
<path d="M5183 6883 c9 -2 23 -2 30 0 6 3 -1 5 -18 5 -16 0 -22 -2 -12 -5z"/>
<path d="M3805 6860 c49 -214 91 -378 93 -371 4 12 -73 338 -87 371 l-12 25 6
-25z"/>
<path d="M5263 6873 c9 -2 23 -2 30 0 6 3 -1 5 -18 5 -16 0 -22 -2 -12 -5z"/>
<path d="M6768 6873 c7 -3 16 -2 19 1 4 3 -2 6 -13 5 -11 0 -14 -3 -6 -6z"/>
<path d="M5343 6863 c9 -2 23 -2 30 0 6 3 -1 5 -18 5 -16 0 -22 -2 -12 -5z"/>
<path d="M6688 6863 c7 -3 16 -2 19 1 4 3 -2 6 -13 5 -11 0 -14 -3 -6 -6z"/>
<path d="M5448 6853 c6 -2 18 -2 25 0 6 3 1 5 -13 5 -14 0 -19 -2 -12 -5z"/>
<path d="M5508 6853 c29 -6 29 -6 -55 -153 -110 -193 -278 -429 -426 -600 -22
-25 -10 -15 25 22 76 79 210 255 300 393 93 144 191 322 183 334 -3 6 -16 10
-28 10 -21 -2 -21 -2 1 -6z"/>
<path d="M6570 6853 c0 -13 98 -190 160 -288 111 -176 306 -433 376 -495 15
-14 -10 20 -56 75 -161 192 -315 417 -424 617 -46 85 -46 87 -24 91 20 4 20 4
-4 6 -16 0 -28 -2 -28 -6z"/>
<path d="M8152 6520 c0 -14 2 -19 5 -12 2 6 2 18 0 25 -3 6 -5 1 -5 -13z"/>
<path d="M3901 6450 c0 -14 6 -52 13 -85 18 -78 19 -40 1 45 -7 36 -13 54 -14
40z"/>
<path d="M8141 6454 c0 -11 3 -14 6 -6 3 7 2 16 -1 19 -3 4 -6 -2 -5 -13z"/>
<path d="M8134 6416 c-3 -8 -4 -25 -2 -38 3 -17 5 -13 9 15 5 38 2 47 -7 23z"/>
<path d="M8115 6295 c-3 -31 -5 -59 -2 -61 3 -3 8 20 12 51 3 31 5 59 2 61 -3
3 -8 -20 -12 -51z"/>
<path d="M3932 6280 c0 -14 4 -38 8 -55 7 -27 8 -27 8 -5 0 14 -4 39 -8 55 -7
27 -8 27 -8 5z"/>
<path d="M8102 6190 c0 -19 2 -27 5 -17 2 9 2 25 0 35 -3 9 -5 1 -5 -18z"/>
<path d="M3952 6165 c0 -16 2 -22 5 -12 2 9 2 23 0 30 -3 6 -5 -1 -5 -18z"/>
<path d="M8092 6125 c0 -16 2 -22 5 -12 2 9 2 23 0 30 -3 6 -5 -1 -5 -18z"/>
<path d="M3959 6098 c4 -28 6 -29 9 -9 2 13 0 27 -5 32 -6 6 -7 -3 -4 -23z"/>
<path d="M8080 6080 c0 -5 5 -10 10 -10 6 0 10 5 10 10 0 6 -4 10 -10 10 -5 0
-10 -4 -10 -10z"/>
<path d="M4053 6073 c9 -2 25 -2 35 0 9 3 1 5 -18 5 -19 0 -27 -2 -17 -5z"/>
<path d="M4118 6073 c7 -3 16 -2 19 1 4 3 -2 6 -13 5 -11 0 -14 -3 -6 -6z"/>
<path d="M7928 6073 c7 -3 16 -2 19 1 4 3 -2 6 -13 5 -11 0 -14 -3 -6 -6z"/>
<path d="M7973 6073 c9 -2 25 -2 35 0 9 3 1 5 -18 5 -19 0 -27 -2 -17 -5z"/>
<path d="M4178 6063 c12 -2 32 -2 45 0 12 2 2 4 -23 4 -25 0 -35 -2 -22 -4z"/>
<path d="M7838 6063 c12 -2 32 -2 45 0 12 2 2 4 -23 4 -25 0 -35 -2 -22 -4z"/>
<path d="M4263 6053 c9 -2 25 -2 35 0 9 3 1 5 -18 5 -19 0 -27 -2 -17 -5z"/>
<path d="M7763 6053 c9 -2 25 -2 35 0 9 3 1 5 -18 5 -19 0 -27 -2 -17 -5z"/>
<path d="M4408 6033 c7 -3 16 -2 19 1 4 3 -2 6 -13 5 -11 0 -14 -3 -6 -6z"/>
<path d="M7628 6033 c7 -3 16 -2 19 1 4 3 -2 6 -13 5 -11 0 -14 -3 -6 -6z"/>
<path d="M4525 6010 c44 -11 87 -19 95 -18 24 1 -122 36 -150 36 -14 0 11 -8
55 -18z"/>
<path d="M7578 6023 c7 -3 16 -2 19 1 4 3 -2 6 -13 5 -11 0 -14 -3 -6 -6z"/>
<path d="M7445 6000 c-94 -24 -61 -24 40 -1 44 11 69 19 55 19 -14 0 -56 -8
-95 -18z"/>
<path d="M4648 5983 c6 -2 18 -2 25 0 6 3 1 5 -13 5 -14 0 -19 -2 -12 -5z"/>
<path d="M4698 5973 c7 -3 16 -2 19 1 4 3 -2 6 -13 5 -11 0 -14 -3 -6 -6z"/>
<path d="M7262 5958 c-40 -11 -71 -22 -69 -24 2 -3 44 7 93 20 49 14 80 25 69
24 -11 0 -53 -9 -93 -20z"/>
<path d="M4790 5950 c36 -11 70 -19 75 -19 17 2 -99 38 -120 38 -11 0 9 -9 45
-19z"/>
<path d="M4888 5923 c7 -3 16 -2 19 1 4 3 -2 6 -13 5 -11 0 -14 -3 -6 -6z"/>
<path d="M7110 5915 c-47 -18 -27 -18 30 -1 25 8 36 15 25 15 -11 0 -36 -7
-55 -14z"/>
<path d="M4935 5910 c11 -5 27 -9 35 -9 9 0 8 4 -5 9 -11 5 -27 9 -35 9 -9 0
-8 -4 5 -9z"/>
<path d="M5035 5880 c28 -10 57 -18 65 -18 8 0 -7 8 -35 18 -27 10 -57 18 -65
18 -8 0 8 -8 35 -18z"/>
<path d="M7010 5885 c-19 -7 -28 -13 -20 -13 8 0 31 6 50 13 19 7 28 13 20 13
-8 0 -31 -6 -50 -13z"/>
<path d="M5135 5850 c27 -12 43 -12 25 0 -8 5 -22 9 -30 9 -10 0 -8 -3 5 -9z"/>
<path d="M6885 5845 c-39 -17 -21 -18 25 0 19 7 28 14 20 14 -8 0 -28 -6 -45
-14z"/>
<path d="M5325 5786 c17 -7 41 -16 55 -20 20 -5 19 -3 -5 8 -16 7 -41 16 -55
20 -20 5 -19 3 5 -8z"/>
<path d="M6677 5773 c-37 -14 -66 -27 -64 -29 4 -4 138 44 146 52 9 9 -17 2
-82 -23z"/>
<path d="M5420 5752 c8 -5 26 -13 40 -16 17 -5 20 -4 10 2 -8 5 -26 13 -40 16
-17 5 -20 4 -10 -2z"/>
<path d="M5500 5720 c8 -5 20 -10 25 -10 6 0 3 5 -5 10 -8 5 -19 10 -25 10 -5
0 -3 -5 5 -10z"/>
<path d="M6540 5720 c-8 -5 -10 -10 -5 -10 6 0 17 5 25 10 8 5 11 10 5 10 -5
0 -17 -5 -25 -10z"/>
<path d="M5541 5706 c8 -8 183 -76 186 -72 2 2 -37 20 -87 40 -84 34 -109 42
-99 32z"/>
<path d="M6400 5666 c-58 -24 -148 -62 -200 -85 -52 -23 -112 -49 -132 -58
-43 -17 -28 -21 -217 62 -57 25 -106 43 -108 41 -2 -2 29 -17 69 -34 40 -17
104 -45 143 -63 80 -36 62 -39 255 46 58 26 150 65 205 87 55 22 102 42 104
44 11 11 -23 -1 -119 -40z"/>
<path d="M5859 5237 c-218 -103 -626 -323 -617 -333 2 -2 121 -62 264 -133
142 -71 317 -161 388 -200 72 -39 133 -71 136 -71 3 0 51 25 105 56 55 30 229
120 388 199 158 80 288 147 290 150 7 18 -702 388 -769 400 -22 5 -65 -11
-185 -68z"/>
<path d="M4892 4687 c-185 -124 -462 -328 -462 -339 0 -5 5 -8 11 -8 14 0 486
-231 628 -308 63 -34 117 -62 121 -62 3 0 110 69 236 153 126 84 275 179 331
212 57 33 103 63 103 67 0 17 -685 363 -778 392 -16 5 -60 -19 -190 -107z"/>
<path d="M6900 4761 c-251 -113 -700 -344 -700 -359 0 -4 46 -34 103 -67 56
-33 205 -128 331 -212 126 -84 232 -153 236 -153 4 0 54 26 111 57 133 72 623
313 638 313 6 0 11 3 11 8 -1 18 -614 453 -638 452 -4 0 -45 -18 -92 -39z"/>
<path d="M5960 4268 c-268 -170 -597 -395 -588 -403 2 -1 66 -41 144 -88 128
-77 383 -245 476 -312 l37 -27 113 79 c128 90 283 190 438 283 58 34 106 64
108 65 11 10 -642 449 -660 444 -2 0 -32 -19 -68 -41z"/>
<path d="M4135 4107 l-141 -122 68 -69 c120 -120 241 -328 313 -538 l36 -105
177 177 c152 152 385 358 440 389 9 5 15 12 12 14 -29 26 -735 377 -758 377
-4 0 -70 -55 -147 -123z"/>
<path d="M7575 4139 c-198 -94 -555 -280 -555 -289 1 -3 31 -27 67 -55 116
-87 304 -257 434 -393 l127 -131 37 107 c73 212 188 411 313 541 l64 66 -50
46 c-89 81 -230 199 -239 198 -4 0 -93 -41 -198 -90z"/>
<path d="M5137 3689 l-77 -62 68 -71 c117 -124 212 -289 292 -508 l43 -117
126 127 c69 70 161 156 204 191 43 36 74 67 70 71 -86 74 -621 430 -646 430
-1 0 -37 -28 -80 -61z"/>
<path d="M6675 3649 c-153 -96 -471 -314 -480 -329 -3 -4 33 -38 78 -76 45
-38 137 -124 203 -192 l121 -122 32 92 c41 118 126 296 184 387 25 38 77 103
116 143 l70 74 -36 30 c-62 51 -118 93 -123 94 -3 0 -77 -45 -165 -101z"/>
</g>
</svg>
